<svg xmlns="http://www.w3.org/2000/svg" viewBox="0 0 100 100">
  <defs>
    <linearGradient id="bg" x1="0%" y1="0%" x2="100%" y2="100%">
      <stop offset="0%" style="stop-color:#6366f1"/>
      <stop offset="100%" style="stop-color:#4f46e5"/>
    </linearGradient>
  </defs>
  <rect width="100" height="100" rx="20" fill="url(#bg)"/>
  <g fill="#fbbf24">
    <!-- Puzzle piece shape -->
    <path d="M25 25 L45 25 L45 30 Q50 30 50 35 Q50 40 45 40 L45 45 L25 45 L25 40 Q20 40 20 35 Q20 30 25 30 Z" transform="translate(0,0)"/>
    <path d="M55 25 L75 25 L75 30 Q80 30 80 35 Q80 40 75 40 L75 45 L55 45 L55 40 Q50 40 50 35 Q50 30 55 30 Z" transform="translate(0,0)" fill="#f472b6"/>
    <path d="M25 55 L45 55 L45 60 Q50 60 50 65 Q50 70 45 70 L45 75 L25 75 L25 70 Q20 70 20 65 Q20 60 25 60 Z" transform="translate(0,0)" fill="#34d399"/>
    <path d="M55 55 L75 55 L75 60 Q80 60 80 65 Q80 70 75 70 L75 75 L55 75 L55 70 Q50 70 50 65 Q50 60 55 60 Z" transform="translate(0,0)" fill="#60a5fa"/>
  </g>
</svg>
